<mxfile host="app.diagrams.net" modified="2023-06-01T15:47:12.247Z" agent="Mozilla/5.0 (Macintosh; Intel Mac OS X 10_15_7) AppleWebKit/605.1.15 (KHTML, like Gecko) Version/16.4 Safari/605.1.15" etag="OxXeMb2Iy4-wDcCfuqZp" version="21.3.6" type="device">
  <diagram name="Page-1" id="UfFSt0-ecF6QwTPH7bMW">
    <mxGraphModel dx="3125" dy="2294" grid="1" gridSize="10" guides="1" tooltips="1" connect="1" arrows="1" fold="1" page="1" pageScale="1" pageWidth="827" pageHeight="1169" math="0" shadow="0">
      <root>
        <mxCell id="0" />
        <mxCell id="1" parent="0" />
        <mxCell id="8p12GAgdQzvBhHeEOqhk-1" value="USUÁRIO" style="whiteSpace=wrap;html=1;align=center;fillColor=#f8cecc;strokeColor=#b85450;" parent="1" vertex="1">
          <mxGeometry x="379.99" y="40" width="100" height="40" as="geometry" />
        </mxCell>
        <mxCell id="8p12GAgdQzvBhHeEOqhk-2" value="CLIENTE" style="whiteSpace=wrap;html=1;align=center;fillColor=#fff2cc;strokeColor=#d6b656;" parent="1" vertex="1">
          <mxGeometry x="110" y="240" width="100" height="40" as="geometry" />
        </mxCell>
        <mxCell id="8p12GAgdQzvBhHeEOqhk-3" value="LABORATORISTA" style="whiteSpace=wrap;html=1;align=center;fillColor=none;" parent="1" vertex="1">
          <mxGeometry x="244" y="240" width="160" height="40" as="geometry" />
        </mxCell>
        <mxCell id="8p12GAgdQzvBhHeEOqhk-4" value="ADMINISTRADOR" style="whiteSpace=wrap;html=1;align=center;fillColor=none;" parent="1" vertex="1">
          <mxGeometry x="444" y="240" width="160" height="40" as="geometry" />
        </mxCell>
        <mxCell id="8p12GAgdQzvBhHeEOqhk-6" style="edgeStyle=orthogonalEdgeStyle;rounded=0;orthogonalLoop=1;jettySize=auto;html=1;exitX=1;exitY=0.5;exitDx=0;exitDy=0;entryX=0.5;entryY=1;entryDx=0;entryDy=0;endArrow=none;endFill=0;" parent="1" source="8p12GAgdQzvBhHeEOqhk-5" target="8p12GAgdQzvBhHeEOqhk-1" edge="1">
          <mxGeometry relative="1" as="geometry" />
        </mxCell>
        <mxCell id="8p12GAgdQzvBhHeEOqhk-7" style="rounded=0;orthogonalLoop=1;jettySize=auto;html=1;exitX=0;exitY=0.25;exitDx=0;exitDy=0;entryX=0.5;entryY=0;entryDx=0;entryDy=0;endArrow=none;endFill=0;" parent="1" source="8p12GAgdQzvBhHeEOqhk-5" target="8p12GAgdQzvBhHeEOqhk-2" edge="1">
          <mxGeometry relative="1" as="geometry" />
        </mxCell>
        <mxCell id="8p12GAgdQzvBhHeEOqhk-8" style="rounded=0;orthogonalLoop=1;jettySize=auto;html=1;exitX=0;exitY=0.5;exitDx=0;exitDy=0;entryX=0.5;entryY=0;entryDx=0;entryDy=0;endArrow=none;endFill=0;" parent="1" source="8p12GAgdQzvBhHeEOqhk-5" target="8p12GAgdQzvBhHeEOqhk-3" edge="1">
          <mxGeometry relative="1" as="geometry" />
        </mxCell>
        <mxCell id="8p12GAgdQzvBhHeEOqhk-36" style="rounded=0;orthogonalLoop=1;jettySize=auto;html=1;exitX=0;exitY=0.75;exitDx=0;exitDy=0;entryX=0.5;entryY=0;entryDx=0;entryDy=0;endArrow=none;endFill=0;" parent="1" source="8p12GAgdQzvBhHeEOqhk-5" target="8p12GAgdQzvBhHeEOqhk-35" edge="1">
          <mxGeometry relative="1" as="geometry" />
        </mxCell>
        <mxCell id="8p12GAgdQzvBhHeEOqhk-37" style="rounded=0;orthogonalLoop=1;jettySize=auto;html=1;exitX=0;exitY=0.5;exitDx=0;exitDy=0;entryX=0.5;entryY=0;entryDx=0;entryDy=0;endArrow=none;endFill=0;" parent="1" source="8p12GAgdQzvBhHeEOqhk-5" target="8p12GAgdQzvBhHeEOqhk-4" edge="1">
          <mxGeometry relative="1" as="geometry" />
        </mxCell>
        <mxCell id="8p12GAgdQzvBhHeEOqhk-5" value="" style="triangle;whiteSpace=wrap;html=1;direction=north;fillColor=#000000;strokeColor=none;" parent="1" vertex="1">
          <mxGeometry x="416.65999999999997" y="180" width="26.67" height="20" as="geometry" />
        </mxCell>
        <mxCell id="8p12GAgdQzvBhHeEOqhk-60" style="rounded=0;orthogonalLoop=1;jettySize=auto;html=1;exitX=1;exitY=0.5;exitDx=0;exitDy=0;entryX=0;entryY=0.5;entryDx=0;entryDy=0;endArrow=none;endFill=0;" parent="1" source="8p12GAgdQzvBhHeEOqhk-10" target="8p12GAgdQzvBhHeEOqhk-59" edge="1">
          <mxGeometry relative="1" as="geometry" />
        </mxCell>
        <mxCell id="8p12GAgdQzvBhHeEOqhk-62" style="rounded=0;orthogonalLoop=1;jettySize=auto;html=1;exitX=1;exitY=0.5;exitDx=0;exitDy=0;entryX=0;entryY=0.5;entryDx=0;entryDy=0;endArrow=none;endFill=0;" parent="1" source="8p12GAgdQzvBhHeEOqhk-10" target="8p12GAgdQzvBhHeEOqhk-61" edge="1">
          <mxGeometry relative="1" as="geometry" />
        </mxCell>
        <mxCell id="8p12GAgdQzvBhHeEOqhk-65" style="rounded=0;orthogonalLoop=1;jettySize=auto;html=1;exitX=1;exitY=0.5;exitDx=0;exitDy=0;entryX=0;entryY=0.5;entryDx=0;entryDy=0;endArrow=none;endFill=0;" parent="1" source="8p12GAgdQzvBhHeEOqhk-10" target="8p12GAgdQzvBhHeEOqhk-63" edge="1">
          <mxGeometry relative="1" as="geometry" />
        </mxCell>
        <mxCell id="8p12GAgdQzvBhHeEOqhk-10" value="NOTIFICAÇÃO" style="whiteSpace=wrap;html=1;align=center;fillColor=none;" parent="1" vertex="1">
          <mxGeometry x="830" y="40" width="120" height="40" as="geometry" />
        </mxCell>
        <mxCell id="8p12GAgdQzvBhHeEOqhk-12" style="edgeStyle=orthogonalEdgeStyle;rounded=0;orthogonalLoop=1;jettySize=auto;html=1;exitX=0;exitY=0.5;exitDx=0;exitDy=0;entryX=1;entryY=0.5;entryDx=0;entryDy=0;endArrow=none;endFill=0;" parent="1" source="8p12GAgdQzvBhHeEOqhk-11" target="8p12GAgdQzvBhHeEOqhk-1" edge="1">
          <mxGeometry relative="1" as="geometry" />
        </mxCell>
        <mxCell id="8p12GAgdQzvBhHeEOqhk-13" style="edgeStyle=orthogonalEdgeStyle;rounded=0;orthogonalLoop=1;jettySize=auto;html=1;exitX=1;exitY=0.5;exitDx=0;exitDy=0;entryX=0;entryY=0.5;entryDx=0;entryDy=0;endArrow=none;endFill=0;" parent="1" source="8p12GAgdQzvBhHeEOqhk-11" target="8p12GAgdQzvBhHeEOqhk-10" edge="1">
          <mxGeometry relative="1" as="geometry" />
        </mxCell>
        <mxCell id="8p12GAgdQzvBhHeEOqhk-11" value="TEM_NOTIFICAÇÃO" style="shape=rhombus;perimeter=rhombusPerimeter;whiteSpace=wrap;html=1;align=center;fillColor=none;" parent="1" vertex="1">
          <mxGeometry x="570" y="30" width="180" height="60" as="geometry" />
        </mxCell>
        <mxCell id="8p12GAgdQzvBhHeEOqhk-69" style="rounded=0;orthogonalLoop=1;jettySize=auto;html=1;exitX=0;exitY=0.5;exitDx=0;exitDy=0;entryX=1;entryY=0.5;entryDx=0;entryDy=0;endArrow=none;endFill=0;" parent="1" source="8p12GAgdQzvBhHeEOqhk-14" target="8p12GAgdQzvBhHeEOqhk-68" edge="1">
          <mxGeometry relative="1" as="geometry" />
        </mxCell>
        <mxCell id="8p12GAgdQzvBhHeEOqhk-109" style="rounded=0;orthogonalLoop=1;jettySize=auto;html=1;exitX=1;exitY=0.5;exitDx=0;exitDy=0;entryX=0;entryY=0.5;entryDx=0;entryDy=0;endArrow=none;endFill=0;" parent="1" source="8p12GAgdQzvBhHeEOqhk-14" target="8p12GAgdQzvBhHeEOqhk-107" edge="1">
          <mxGeometry relative="1" as="geometry" />
        </mxCell>
        <mxCell id="8p12GAgdQzvBhHeEOqhk-14" value="COLETA" style="whiteSpace=wrap;html=1;align=center;fillColor=none;" parent="1" vertex="1">
          <mxGeometry x="-670" y="240" width="120" height="40" as="geometry" />
        </mxCell>
        <mxCell id="8p12GAgdQzvBhHeEOqhk-17" style="edgeStyle=orthogonalEdgeStyle;rounded=0;orthogonalLoop=1;jettySize=auto;html=1;exitX=0.5;exitY=1;exitDx=0;exitDy=0;entryX=0.5;entryY=0;entryDx=0;entryDy=0;endArrow=none;endFill=0;" parent="1" source="8p12GAgdQzvBhHeEOqhk-15" target="8p12GAgdQzvBhHeEOqhk-14" edge="1">
          <mxGeometry relative="1" as="geometry" />
        </mxCell>
        <mxCell id="8p12GAgdQzvBhHeEOqhk-18" style="edgeStyle=orthogonalEdgeStyle;rounded=0;orthogonalLoop=1;jettySize=auto;html=1;exitX=0.5;exitY=0;exitDx=0;exitDy=0;entryX=0.5;entryY=1;entryDx=0;entryDy=0;endArrow=none;endFill=0;" parent="1" source="8p12GAgdQzvBhHeEOqhk-15" target="8p12GAgdQzvBhHeEOqhk-16" edge="1">
          <mxGeometry relative="1" as="geometry" />
        </mxCell>
        <mxCell id="8p12GAgdQzvBhHeEOqhk-15" value="REALIZA" style="shape=rhombus;perimeter=rhombusPerimeter;whiteSpace=wrap;html=1;align=center;fillColor=none;" parent="1" vertex="1">
          <mxGeometry x="-670" y="130" width="120" height="60" as="geometry" />
        </mxCell>
        <mxCell id="8p12GAgdQzvBhHeEOqhk-16" value="CLIENTE" style="whiteSpace=wrap;html=1;align=center;fillColor=#fff2cc;strokeColor=#d6b656;" parent="1" vertex="1">
          <mxGeometry x="-660" y="40" width="100" height="40" as="geometry" />
        </mxCell>
        <mxCell id="8p12GAgdQzvBhHeEOqhk-20" style="edgeStyle=orthogonalEdgeStyle;rounded=0;orthogonalLoop=1;jettySize=auto;html=1;exitX=0.5;exitY=0;exitDx=0;exitDy=0;entryX=0.5;entryY=1;entryDx=0;entryDy=0;endArrow=none;endFill=0;" parent="1" source="8p12GAgdQzvBhHeEOqhk-19" target="8p12GAgdQzvBhHeEOqhk-14" edge="1">
          <mxGeometry relative="1" as="geometry" />
        </mxCell>
        <mxCell id="8p12GAgdQzvBhHeEOqhk-22" style="edgeStyle=orthogonalEdgeStyle;rounded=0;orthogonalLoop=1;jettySize=auto;html=1;exitX=0.5;exitY=1;exitDx=0;exitDy=0;entryX=0.5;entryY=0;entryDx=0;entryDy=0;endArrow=none;endFill=0;" parent="1" source="8p12GAgdQzvBhHeEOqhk-19" target="8p12GAgdQzvBhHeEOqhk-21" edge="1">
          <mxGeometry relative="1" as="geometry" />
        </mxCell>
        <mxCell id="8p12GAgdQzvBhHeEOqhk-19" value="GERA" style="shape=rhombus;perimeter=rhombusPerimeter;whiteSpace=wrap;html=1;align=center;fillColor=none;" parent="1" vertex="1">
          <mxGeometry x="-670" y="340" width="120" height="60" as="geometry" />
        </mxCell>
        <mxCell id="8p12GAgdQzvBhHeEOqhk-28" style="edgeStyle=orthogonalEdgeStyle;rounded=0;orthogonalLoop=1;jettySize=auto;html=1;exitX=0.5;exitY=1;exitDx=0;exitDy=0;entryX=0.5;entryY=0;entryDx=0;entryDy=0;endArrow=none;endFill=0;" parent="1" source="8p12GAgdQzvBhHeEOqhk-21" edge="1">
          <mxGeometry relative="1" as="geometry">
            <mxPoint x="-610" y="560" as="targetPoint" />
          </mxGeometry>
        </mxCell>
        <mxCell id="8p12GAgdQzvBhHeEOqhk-21" value="EXAME" style="whiteSpace=wrap;html=1;align=center;fillColor=none;" parent="1" vertex="1">
          <mxGeometry x="-670" y="480" width="120" height="40" as="geometry" />
        </mxCell>
        <mxCell id="8p12GAgdQzvBhHeEOqhk-35" value="MÉDICO" style="whiteSpace=wrap;html=1;align=center;fillColor=none;" parent="1" vertex="1">
          <mxGeometry x="640" y="240" width="120" height="40" as="geometry" />
        </mxCell>
        <mxCell id="8p12GAgdQzvBhHeEOqhk-40" style="edgeStyle=orthogonalEdgeStyle;rounded=0;orthogonalLoop=1;jettySize=auto;html=1;exitX=1;exitY=0.5;exitDx=0;exitDy=0;entryX=0;entryY=0.5;entryDx=0;entryDy=0;endArrow=none;endFill=0;" parent="1" source="8p12GAgdQzvBhHeEOqhk-38" target="8p12GAgdQzvBhHeEOqhk-39" edge="1">
          <mxGeometry relative="1" as="geometry" />
        </mxCell>
        <mxCell id="8p12GAgdQzvBhHeEOqhk-41" style="edgeStyle=orthogonalEdgeStyle;rounded=0;orthogonalLoop=1;jettySize=auto;html=1;exitX=0;exitY=0.5;exitDx=0;exitDy=0;entryX=1;entryY=0.5;entryDx=0;entryDy=0;endArrow=none;endFill=0;" parent="1" source="8p12GAgdQzvBhHeEOqhk-38" edge="1">
          <mxGeometry relative="1" as="geometry">
            <mxPoint x="-550" y="680" as="targetPoint" />
          </mxGeometry>
        </mxCell>
        <mxCell id="8p12GAgdQzvBhHeEOqhk-38" value="TEM_TIPO" style="shape=rhombus;perimeter=rhombusPerimeter;whiteSpace=wrap;html=1;align=center;fillColor=none;" parent="1" vertex="1">
          <mxGeometry x="-497.5" y="650" width="145" height="60" as="geometry" />
        </mxCell>
        <mxCell id="8p12GAgdQzvBhHeEOqhk-95" style="rounded=0;orthogonalLoop=1;jettySize=auto;html=1;exitX=1;exitY=0.5;exitDx=0;exitDy=0;entryX=0;entryY=0.5;entryDx=0;entryDy=0;endArrow=none;endFill=0;" parent="1" source="8p12GAgdQzvBhHeEOqhk-39" target="8p12GAgdQzvBhHeEOqhk-94" edge="1">
          <mxGeometry relative="1" as="geometry" />
        </mxCell>
        <mxCell id="8p12GAgdQzvBhHeEOqhk-39" value="TIPO_PAINEL" style="whiteSpace=wrap;html=1;align=center;fillColor=none;" parent="1" vertex="1">
          <mxGeometry x="-310" y="660" width="120" height="40" as="geometry" />
        </mxCell>
        <mxCell id="8p12GAgdQzvBhHeEOqhk-44" style="edgeStyle=orthogonalEdgeStyle;rounded=0;orthogonalLoop=1;jettySize=auto;html=1;exitX=0.5;exitY=1;exitDx=0;exitDy=0;entryX=0.5;entryY=0;entryDx=0;entryDy=0;endArrow=none;endFill=0;" parent="1" source="8p12GAgdQzvBhHeEOqhk-42" target="8p12GAgdQzvBhHeEOqhk-43" edge="1">
          <mxGeometry relative="1" as="geometry" />
        </mxCell>
        <mxCell id="8p12GAgdQzvBhHeEOqhk-45" style="edgeStyle=orthogonalEdgeStyle;rounded=0;orthogonalLoop=1;jettySize=auto;html=1;exitX=0.5;exitY=0;exitDx=0;exitDy=0;entryX=0.5;entryY=1;entryDx=0;entryDy=0;endArrow=none;endFill=0;" parent="1" source="8p12GAgdQzvBhHeEOqhk-42" edge="1">
          <mxGeometry relative="1" as="geometry">
            <mxPoint x="-610" y="700" as="targetPoint" />
          </mxGeometry>
        </mxCell>
        <mxCell id="8p12GAgdQzvBhHeEOqhk-42" value="IDENTIFICA_CONDIÇÃO" style="shape=rhombus;perimeter=rhombusPerimeter;whiteSpace=wrap;html=1;align=center;fillColor=none;" parent="1" vertex="1">
          <mxGeometry x="-711.25" y="750" width="202.5" height="60" as="geometry" />
        </mxCell>
        <mxCell id="8p12GAgdQzvBhHeEOqhk-43" value="CONDIÇÃO" style="whiteSpace=wrap;html=1;align=center;fillColor=none;" parent="1" vertex="1">
          <mxGeometry x="-670" y="860" width="120" height="40" as="geometry" />
        </mxCell>
        <mxCell id="8p12GAgdQzvBhHeEOqhk-50" style="rounded=0;orthogonalLoop=1;jettySize=auto;html=1;exitX=1;exitY=0.5;exitDx=0;exitDy=0;entryX=0;entryY=0.5;entryDx=0;entryDy=0;endArrow=none;endFill=0;" parent="1" source="8p12GAgdQzvBhHeEOqhk-47" target="8p12GAgdQzvBhHeEOqhk-1" edge="1">
          <mxGeometry relative="1" as="geometry" />
        </mxCell>
        <mxCell id="8p12GAgdQzvBhHeEOqhk-47" value="id" style="ellipse;whiteSpace=wrap;html=1;align=center;fontStyle=4;fillColor=none;" parent="1" vertex="1">
          <mxGeometry x="200" y="-52" width="120" height="30" as="geometry" />
        </mxCell>
        <mxCell id="8p12GAgdQzvBhHeEOqhk-52" style="rounded=0;orthogonalLoop=1;jettySize=auto;html=1;exitX=1;exitY=0.5;exitDx=0;exitDy=0;entryX=0;entryY=0.5;entryDx=0;entryDy=0;endArrow=none;endFill=0;" parent="1" source="8p12GAgdQzvBhHeEOqhk-51" target="8p12GAgdQzvBhHeEOqhk-1" edge="1">
          <mxGeometry relative="1" as="geometry" />
        </mxCell>
        <mxCell id="8p12GAgdQzvBhHeEOqhk-51" value="nome_completo" style="ellipse;whiteSpace=wrap;html=1;align=center;fillColor=none;" parent="1" vertex="1">
          <mxGeometry x="200" y="-18" width="120" height="30" as="geometry" />
        </mxCell>
        <mxCell id="8p12GAgdQzvBhHeEOqhk-54" style="rounded=0;orthogonalLoop=1;jettySize=auto;html=1;exitX=1;exitY=0.5;exitDx=0;exitDy=0;entryX=0;entryY=0.5;entryDx=0;entryDy=0;endArrow=none;endFill=0;" parent="1" source="8p12GAgdQzvBhHeEOqhk-53" target="8p12GAgdQzvBhHeEOqhk-1" edge="1">
          <mxGeometry relative="1" as="geometry" />
        </mxCell>
        <mxCell id="8p12GAgdQzvBhHeEOqhk-53" value="email" style="ellipse;whiteSpace=wrap;html=1;align=center;fillColor=none;" parent="1" vertex="1">
          <mxGeometry x="200" y="16" width="120" height="30" as="geometry" />
        </mxCell>
        <mxCell id="8p12GAgdQzvBhHeEOqhk-56" style="rounded=0;orthogonalLoop=1;jettySize=auto;html=1;exitX=1;exitY=0.5;exitDx=0;exitDy=0;entryX=0;entryY=0.5;entryDx=0;entryDy=0;endArrow=none;endFill=0;" parent="1" source="8p12GAgdQzvBhHeEOqhk-55" target="8p12GAgdQzvBhHeEOqhk-1" edge="1">
          <mxGeometry relative="1" as="geometry" />
        </mxCell>
        <mxCell id="8p12GAgdQzvBhHeEOqhk-55" value="senha" style="ellipse;whiteSpace=wrap;html=1;align=center;fillColor=none;" parent="1" vertex="1">
          <mxGeometry x="200" y="50" width="120" height="30" as="geometry" />
        </mxCell>
        <mxCell id="8p12GAgdQzvBhHeEOqhk-59" value="id" style="ellipse;whiteSpace=wrap;html=1;align=center;fontStyle=4;fillColor=none;" parent="1" vertex="1">
          <mxGeometry x="980" y="-22" width="120" height="30" as="geometry" />
        </mxCell>
        <mxCell id="8p12GAgdQzvBhHeEOqhk-61" value="data" style="ellipse;whiteSpace=wrap;html=1;align=center;fillColor=none;" parent="1" vertex="1">
          <mxGeometry x="980" y="16" width="120" height="30" as="geometry" />
        </mxCell>
        <mxCell id="8p12GAgdQzvBhHeEOqhk-63" value="visualizado" style="ellipse;whiteSpace=wrap;html=1;align=center;fillColor=none;" parent="1" vertex="1">
          <mxGeometry x="980" y="50" width="120" height="30" as="geometry" />
        </mxCell>
        <mxCell id="8p12GAgdQzvBhHeEOqhk-67" style="rounded=0;orthogonalLoop=1;jettySize=auto;html=1;exitX=0;exitY=0.5;exitDx=0;exitDy=0;entryX=1;entryY=0.5;entryDx=0;entryDy=0;endArrow=none;endFill=0;" parent="1" source="8p12GAgdQzvBhHeEOqhk-64" target="8p12GAgdQzvBhHeEOqhk-10" edge="1">
          <mxGeometry relative="1" as="geometry" />
        </mxCell>
        <mxCell id="8p12GAgdQzvBhHeEOqhk-64" value="texto" style="ellipse;whiteSpace=wrap;html=1;align=center;fillColor=none;" parent="1" vertex="1">
          <mxGeometry x="980" y="84" width="120" height="30" as="geometry" />
        </mxCell>
        <mxCell id="8p12GAgdQzvBhHeEOqhk-68" value="&lt;u&gt;data&lt;/u&gt;" style="ellipse;whiteSpace=wrap;html=1;align=center;fillColor=none;" parent="1" vertex="1">
          <mxGeometry x="-831.25" y="220" width="120" height="30" as="geometry" />
        </mxCell>
        <mxCell id="8p12GAgdQzvBhHeEOqhk-71" style="rounded=0;orthogonalLoop=1;jettySize=auto;html=1;exitX=1;exitY=0.5;exitDx=0;exitDy=0;entryX=0;entryY=0.5;entryDx=0;entryDy=0;endArrow=none;endFill=0;" parent="1" source="8p12GAgdQzvBhHeEOqhk-70" edge="1">
          <mxGeometry relative="1" as="geometry">
            <mxPoint x="-670" y="680" as="targetPoint" />
          </mxGeometry>
        </mxCell>
        <mxCell id="8p12GAgdQzvBhHeEOqhk-70" value="sequência_de_código_genético" style="ellipse;whiteSpace=wrap;html=1;align=center;fillColor=none;" parent="1" vertex="1">
          <mxGeometry x="-900" y="640" width="200" height="30" as="geometry" />
        </mxCell>
        <mxCell id="8p12GAgdQzvBhHeEOqhk-73" style="rounded=0;orthogonalLoop=1;jettySize=auto;html=1;exitX=1;exitY=0.5;exitDx=0;exitDy=0;entryX=0;entryY=0.5;entryDx=0;entryDy=0;endArrow=none;endFill=0;" parent="1" source="h_wHoNknPCHdNYe4aW0E-1" target="8p12GAgdQzvBhHeEOqhk-43" edge="1">
          <mxGeometry relative="1" as="geometry">
            <mxPoint x="-720" y="845" as="sourcePoint" />
          </mxGeometry>
        </mxCell>
        <mxCell id="8p12GAgdQzvBhHeEOqhk-75" style="rounded=0;orthogonalLoop=1;jettySize=auto;html=1;exitX=1;exitY=0.5;exitDx=0;exitDy=0;entryX=0;entryY=0.5;entryDx=0;entryDy=0;endArrow=none;endFill=0;" parent="1" source="8p12GAgdQzvBhHeEOqhk-74" target="8p12GAgdQzvBhHeEOqhk-43" edge="1">
          <mxGeometry relative="1" as="geometry" />
        </mxCell>
        <mxCell id="8p12GAgdQzvBhHeEOqhk-74" value="descrição" style="ellipse;whiteSpace=wrap;html=1;align=center;fillColor=none;" parent="1" vertex="1">
          <mxGeometry x="-840" y="865" width="120" height="30" as="geometry" />
        </mxCell>
        <mxCell id="8p12GAgdQzvBhHeEOqhk-77" style="rounded=0;orthogonalLoop=1;jettySize=auto;html=1;exitX=1;exitY=0.5;exitDx=0;exitDy=0;entryX=0;entryY=0.5;entryDx=0;entryDy=0;endArrow=none;endFill=0;" parent="1" source="8p12GAgdQzvBhHeEOqhk-76" target="8p12GAgdQzvBhHeEOqhk-43" edge="1">
          <mxGeometry relative="1" as="geometry" />
        </mxCell>
        <mxCell id="8p12GAgdQzvBhHeEOqhk-76" value="nome" style="ellipse;whiteSpace=wrap;html=1;align=center;fillColor=none;" parent="1" vertex="1">
          <mxGeometry x="-840" y="900" width="120" height="30" as="geometry" />
        </mxCell>
        <mxCell id="8p12GAgdQzvBhHeEOqhk-81" style="rounded=0;orthogonalLoop=1;jettySize=auto;html=1;exitX=1;exitY=0.5;exitDx=0;exitDy=0;entryX=0;entryY=0.5;entryDx=0;entryDy=0;endArrow=none;endFill=0;" parent="1" source="8p12GAgdQzvBhHeEOqhk-80" target="8p12GAgdQzvBhHeEOqhk-21" edge="1">
          <mxGeometry relative="1" as="geometry" />
        </mxCell>
        <mxCell id="8p12GAgdQzvBhHeEOqhk-80" value="MODIFICA_ESTADO" style="shape=rhombus;perimeter=rhombusPerimeter;whiteSpace=wrap;html=1;align=center;fillColor=none;" parent="1" vertex="1">
          <mxGeometry x="-895" y="470" width="175" height="60" as="geometry" />
        </mxCell>
        <mxCell id="8p12GAgdQzvBhHeEOqhk-83" style="rounded=0;orthogonalLoop=1;jettySize=auto;html=1;exitX=1;exitY=0.5;exitDx=0;exitDy=0;entryX=0;entryY=0.5;entryDx=0;entryDy=0;endArrow=none;endFill=0;" parent="1" source="8p12GAgdQzvBhHeEOqhk-82" target="8p12GAgdQzvBhHeEOqhk-80" edge="1">
          <mxGeometry relative="1" as="geometry" />
        </mxCell>
        <mxCell id="8p12GAgdQzvBhHeEOqhk-82" value="USUARIO" style="whiteSpace=wrap;html=1;align=center;fillColor=#f8cecc;strokeColor=#b85450;" parent="1" vertex="1">
          <mxGeometry x="-1040" y="480" width="100" height="40" as="geometry" />
        </mxCell>
        <mxCell id="8p12GAgdQzvBhHeEOqhk-90" style="rounded=0;orthogonalLoop=1;jettySize=auto;html=1;exitX=1;exitY=0.5;exitDx=0;exitDy=0;entryX=0.5;entryY=0;entryDx=0;entryDy=0;endArrow=none;endFill=0;" parent="1" source="8p12GAgdQzvBhHeEOqhk-85" target="8p12GAgdQzvBhHeEOqhk-80" edge="1">
          <mxGeometry relative="1" as="geometry" />
        </mxCell>
        <mxCell id="8p12GAgdQzvBhHeEOqhk-85" value="&lt;u&gt;data&lt;/u&gt;" style="ellipse;whiteSpace=wrap;html=1;align=center;fillColor=none;" parent="1" vertex="1">
          <mxGeometry x="-940" y="406" width="120" height="30" as="geometry" />
        </mxCell>
        <mxCell id="8p12GAgdQzvBhHeEOqhk-89" style="rounded=0;orthogonalLoop=1;jettySize=auto;html=1;exitX=1;exitY=0.5;exitDx=0;exitDy=0;entryX=0.5;entryY=0;entryDx=0;entryDy=0;endArrow=none;endFill=0;" parent="1" source="8p12GAgdQzvBhHeEOqhk-88" target="8p12GAgdQzvBhHeEOqhk-80" edge="1">
          <mxGeometry relative="1" as="geometry" />
        </mxCell>
        <mxCell id="8p12GAgdQzvBhHeEOqhk-88" value="status" style="ellipse;whiteSpace=wrap;html=1;align=center;fillColor=none;" parent="1" vertex="1">
          <mxGeometry x="-940" y="440" width="120" height="30" as="geometry" />
        </mxCell>
        <mxCell id="8p12GAgdQzvBhHeEOqhk-94" value="descrição" style="ellipse;whiteSpace=wrap;html=1;align=center;fillColor=none;" parent="1" vertex="1">
          <mxGeometry x="-150" y="640" width="120" height="30" as="geometry" />
        </mxCell>
        <mxCell id="8p12GAgdQzvBhHeEOqhk-96" value="1" style="text;html=1;strokeColor=none;fillColor=none;align=center;verticalAlign=middle;whiteSpace=wrap;rounded=0;" parent="1" vertex="1">
          <mxGeometry x="479.99" y="30" width="19.99" height="30" as="geometry" />
        </mxCell>
        <mxCell id="8p12GAgdQzvBhHeEOqhk-97" value="N" style="text;html=1;strokeColor=none;fillColor=none;align=center;verticalAlign=middle;whiteSpace=wrap;rounded=0;" parent="1" vertex="1">
          <mxGeometry x="810.01" y="30" width="19.99" height="30" as="geometry" />
        </mxCell>
        <mxCell id="8p12GAgdQzvBhHeEOqhk-98" value="1" style="text;html=1;strokeColor=none;fillColor=none;align=center;verticalAlign=middle;whiteSpace=wrap;rounded=0;" parent="1" vertex="1">
          <mxGeometry x="-610" y="80" width="19.99" height="30" as="geometry" />
        </mxCell>
        <mxCell id="8p12GAgdQzvBhHeEOqhk-100" value="N" style="text;html=1;strokeColor=none;fillColor=none;align=center;verticalAlign=middle;whiteSpace=wrap;rounded=0;" parent="1" vertex="1">
          <mxGeometry x="-610" y="210" width="19.99" height="30" as="geometry" />
        </mxCell>
        <mxCell id="8p12GAgdQzvBhHeEOqhk-101" value="1" style="text;html=1;strokeColor=none;fillColor=none;align=center;verticalAlign=middle;whiteSpace=wrap;rounded=0;" parent="1" vertex="1">
          <mxGeometry x="-610" y="280" width="19.99" height="30" as="geometry" />
        </mxCell>
        <mxCell id="8p12GAgdQzvBhHeEOqhk-102" value="N" style="text;html=1;strokeColor=none;fillColor=none;align=center;verticalAlign=middle;whiteSpace=wrap;rounded=0;" parent="1" vertex="1">
          <mxGeometry x="-610" y="450" width="19.99" height="30" as="geometry" />
        </mxCell>
        <mxCell id="8p12GAgdQzvBhHeEOqhk-103" value="1" style="text;html=1;strokeColor=none;fillColor=none;align=center;verticalAlign=middle;whiteSpace=wrap;rounded=0;" parent="1" vertex="1">
          <mxGeometry x="-610" y="520" width="19.99" height="30" as="geometry" />
        </mxCell>
        <mxCell id="8p12GAgdQzvBhHeEOqhk-104" value="1" style="text;html=1;strokeColor=none;fillColor=none;align=center;verticalAlign=middle;whiteSpace=wrap;rounded=0;" parent="1" vertex="1">
          <mxGeometry x="-610" y="630" width="19.99" height="30" as="geometry" />
        </mxCell>
        <mxCell id="8p12GAgdQzvBhHeEOqhk-108" style="rounded=0;orthogonalLoop=1;jettySize=auto;html=1;exitX=0.5;exitY=1;exitDx=0;exitDy=0;entryX=0.5;entryY=0;entryDx=0;entryDy=0;endArrow=none;endFill=0;" parent="1" source="8p12GAgdQzvBhHeEOqhk-107" target="8p12GAgdQzvBhHeEOqhk-39" edge="1">
          <mxGeometry relative="1" as="geometry" />
        </mxCell>
        <mxCell id="8p12GAgdQzvBhHeEOqhk-107" value="TEM_INDICAÇÃO" style="shape=rhombus;perimeter=rhombusPerimeter;whiteSpace=wrap;html=1;align=center;fillColor=none;" parent="1" vertex="1">
          <mxGeometry x="-322.5" y="230" width="145" height="60" as="geometry" />
        </mxCell>
        <mxCell id="8p12GAgdQzvBhHeEOqhk-110" value="N" style="text;html=1;strokeColor=none;fillColor=none;align=center;verticalAlign=middle;whiteSpace=wrap;rounded=0;" parent="1" vertex="1">
          <mxGeometry x="-550" y="230" width="19.99" height="30" as="geometry" />
        </mxCell>
        <mxCell id="8p12GAgdQzvBhHeEOqhk-111" value="1" style="text;html=1;strokeColor=none;fillColor=none;align=center;verticalAlign=middle;whiteSpace=wrap;rounded=0;" parent="1" vertex="1">
          <mxGeometry x="-250" y="630" width="19.99" height="30" as="geometry" />
        </mxCell>
        <mxCell id="8p12GAgdQzvBhHeEOqhk-112" value="N" style="text;html=1;strokeColor=none;fillColor=none;align=center;verticalAlign=middle;whiteSpace=wrap;rounded=0;" parent="1" vertex="1">
          <mxGeometry x="-610" y="700" width="19.99" height="30" as="geometry" />
        </mxCell>
        <mxCell id="8p12GAgdQzvBhHeEOqhk-113" value="M" style="text;html=1;strokeColor=none;fillColor=none;align=center;verticalAlign=middle;whiteSpace=wrap;rounded=0;" parent="1" vertex="1">
          <mxGeometry x="-610" y="830" width="19.99" height="30" as="geometry" />
        </mxCell>
        <mxCell id="8p12GAgdQzvBhHeEOqhk-114" value="N" style="text;html=1;strokeColor=none;fillColor=none;align=center;verticalAlign=middle;whiteSpace=wrap;rounded=0;" parent="1" vertex="1">
          <mxGeometry x="-550" y="650" width="19.99" height="30" as="geometry" />
        </mxCell>
        <mxCell id="8p12GAgdQzvBhHeEOqhk-115" value="1" style="text;html=1;strokeColor=none;fillColor=none;align=center;verticalAlign=middle;whiteSpace=wrap;rounded=0;" parent="1" vertex="1">
          <mxGeometry x="-329.99" y="650" width="19.99" height="30" as="geometry" />
        </mxCell>
        <mxCell id="8p12GAgdQzvBhHeEOqhk-116" value="N" style="text;html=1;strokeColor=none;fillColor=none;align=center;verticalAlign=middle;whiteSpace=wrap;rounded=0;" parent="1" vertex="1">
          <mxGeometry x="-940" y="470" width="19.99" height="30" as="geometry" />
        </mxCell>
        <mxCell id="8p12GAgdQzvBhHeEOqhk-117" value="M" style="text;html=1;strokeColor=none;fillColor=none;align=center;verticalAlign=middle;whiteSpace=wrap;rounded=0;" parent="1" vertex="1">
          <mxGeometry x="-689.99" y="470" width="19.99" height="30" as="geometry" />
        </mxCell>
        <mxCell id="bfT1tjqmTY1T_hW3XzZ2-4" style="rounded=0;orthogonalLoop=1;jettySize=auto;html=1;exitX=0.5;exitY=1;exitDx=0;exitDy=0;entryX=0.5;entryY=0;entryDx=0;entryDy=0;endArrow=none;endFill=0;" parent="1" source="bfT1tjqmTY1T_hW3XzZ2-2" target="bfT1tjqmTY1T_hW3XzZ2-3" edge="1">
          <mxGeometry relative="1" as="geometry" />
        </mxCell>
        <mxCell id="bfT1tjqmTY1T_hW3XzZ2-2" value="TEM_PAINEL" style="shape=rhombus;double=1;perimeter=rhombusPerimeter;whiteSpace=wrap;html=1;align=center;fillColor=none;" parent="1" vertex="1">
          <mxGeometry x="-670" y="560" width="120" height="60" as="geometry" />
        </mxCell>
        <mxCell id="bfT1tjqmTY1T_hW3XzZ2-3" value="PAINEL" style="shape=ext;margin=3;double=1;whiteSpace=wrap;html=1;align=center;fillColor=none;" parent="1" vertex="1">
          <mxGeometry x="-670" y="660" width="120" height="40" as="geometry" />
        </mxCell>
        <mxCell id="bfT1tjqmTY1T_hW3XzZ2-6" style="edgeStyle=orthogonalEdgeStyle;rounded=0;orthogonalLoop=1;jettySize=auto;html=1;exitX=0.5;exitY=0;exitDx=0;exitDy=0;entryX=0.5;entryY=1;entryDx=0;entryDy=0;endArrow=none;endFill=0;" parent="1" source="bfT1tjqmTY1T_hW3XzZ2-5" target="8p12GAgdQzvBhHeEOqhk-2" edge="1">
          <mxGeometry relative="1" as="geometry" />
        </mxCell>
        <mxCell id="bfT1tjqmTY1T_hW3XzZ2-5" value="telefone" style="ellipse;whiteSpace=wrap;html=1;align=center;fillColor=none;" parent="1" vertex="1">
          <mxGeometry x="100" y="310" width="120" height="30" as="geometry" />
        </mxCell>
        <mxCell id="bfT1tjqmTY1T_hW3XzZ2-9" style="rounded=0;orthogonalLoop=1;jettySize=auto;html=1;exitX=0.5;exitY=0;exitDx=0;exitDy=0;entryX=0.5;entryY=1;entryDx=0;entryDy=0;endArrow=none;endFill=0;" parent="1" source="bfT1tjqmTY1T_hW3XzZ2-7" target="8p12GAgdQzvBhHeEOqhk-3" edge="1">
          <mxGeometry relative="1" as="geometry" />
        </mxCell>
        <mxCell id="bfT1tjqmTY1T_hW3XzZ2-7" value="número_identificador" style="ellipse;whiteSpace=wrap;html=1;align=center;fillColor=none;" parent="1" vertex="1">
          <mxGeometry x="253.99" y="310" width="140.01" height="30" as="geometry" />
        </mxCell>
        <mxCell id="bfT1tjqmTY1T_hW3XzZ2-11" style="edgeStyle=orthogonalEdgeStyle;rounded=0;orthogonalLoop=1;jettySize=auto;html=1;exitX=0.5;exitY=0;exitDx=0;exitDy=0;entryX=0.5;entryY=1;entryDx=0;entryDy=0;endArrow=none;endFill=0;" parent="1" source="bfT1tjqmTY1T_hW3XzZ2-10" target="8p12GAgdQzvBhHeEOqhk-35" edge="1">
          <mxGeometry relative="1" as="geometry" />
        </mxCell>
        <mxCell id="bfT1tjqmTY1T_hW3XzZ2-10" value="registro_crm" style="ellipse;whiteSpace=wrap;html=1;align=center;fillColor=none;" parent="1" vertex="1">
          <mxGeometry x="629.99" y="320" width="140.01" height="30" as="geometry" />
        </mxCell>
        <mxCell id="ZVTIxurPaJ0oQI34jsYi-2" style="rounded=0;orthogonalLoop=1;jettySize=auto;html=1;exitX=1;exitY=0.5;exitDx=0;exitDy=0;entryX=0;entryY=0.5;entryDx=0;entryDy=0;endArrow=none;endFill=0;" parent="1" source="ZVTIxurPaJ0oQI34jsYi-1" target="8p12GAgdQzvBhHeEOqhk-43" edge="1">
          <mxGeometry relative="1" as="geometry" />
        </mxCell>
        <mxCell id="ZVTIxurPaJ0oQI34jsYi-1" value="probabilidade" style="ellipse;whiteSpace=wrap;html=1;align=center;fillColor=none;" parent="1" vertex="1">
          <mxGeometry x="-840" y="938" width="120" height="30" as="geometry" />
        </mxCell>
        <mxCell id="h_wHoNknPCHdNYe4aW0E-1" value="sequência_de_dna" style="ellipse;shape=doubleEllipse;margin=3;whiteSpace=wrap;html=1;align=center;" vertex="1" parent="1">
          <mxGeometry x="-840" y="825.5" width="120" height="35" as="geometry" />
        </mxCell>
      </root>
    </mxGraphModel>
  </diagram>
</mxfile>
